<?xml version="1.0" standalone="no"?><!DOCTYPE svg PUBLIC "-//W3C//DTD SVG 1.1//EN" "http://www.w3.org/Graphics/SVG/1.1/DTD/svg11.dtd"><svg t="1615387983889" class="icon" viewBox="0 0 1024 1024" version="1.1" xmlns="http://www.w3.org/2000/svg" p-id="10810" xmlns:xlink="http://www.w3.org/1999/xlink" width="128" height="128"><defs><style type="text/css"></style></defs><path d="M434.5344 176.6912c-37.632-35.1232-86.6816-52.48-138.2912-48.9472-90.7776 6.2976-163.9424 79.4624-170.24 170.24-3.5328 51.5584 13.824 100.6592 48.9472 138.2912 34.6112 37.0688 83.5584 58.368 134.2976 58.368 23.7568 0 57.6-1.4336 90.3168-2.8672 19.6608-0.8192 38.2464-1.6384 53.5552-2.048 22.272-0.6144 39.7312-18.6368 39.7312-40.96V310.9888c0.0512-50.7392-21.248-99.6864-58.3168-134.2976zM453.12 537.088c-15.36-0.4096-33.9456-1.2288-53.6576-2.0992-32.7168-1.3824-66.5088-2.816-90.2656-2.816-50.7392 0-99.6352 21.2992-134.2976 58.368-35.1232 37.632-52.48 86.7328-48.9472 138.2912 6.2464 90.7776 79.4624 163.9424 170.24 170.24 4.4032 0.3072 8.8064 0.4608 13.1584 0.4608 46.6944 0 90.7264-17.2544 125.0816-49.3568 37.0688-34.6112 58.368-83.5584 58.368-134.2976v-137.7792a40.56576 40.56576 0 0 0-39.68-41.0112zM570.88 489.728c15.3088 0.4096 33.8944 1.2288 53.5552 2.048 32.7168 1.3824 66.56 2.8672 90.3168 2.8672 50.7392 0 99.6352-21.248 134.2976-58.368 35.1232-37.632 52.48-86.7328 48.9472-138.2912-6.2464-90.7776-79.4624-163.9424-170.24-170.24-51.456-3.5328-100.6592 13.824-138.2912 48.9472-37.0688 34.6112-58.368 83.5584-58.368 134.2976v137.7792c0 22.3232 17.4592 40.3456 39.7824 40.96zM714.752 532.1728c-23.7568 0-57.5488 1.4336-90.2656 2.8672-19.712 0.8192-38.2976 1.6384-53.6064 2.048a40.77568 40.77568 0 0 0-39.7824 40.96v137.7792c0 50.7392 21.248 99.6352 58.368 134.2976 34.4064 32.1024 78.3872 49.3568 125.1328 49.3568 4.352 0 8.7552-0.1536 13.1584-0.4608 90.7776-6.2464 163.9424-79.4624 170.24-170.24 3.5328-51.5584-13.824-100.6592-48.9472-138.2912-34.6112-37.0688-83.5584-58.3168-134.2976-58.3168z" fill="#515151" p-id="10811"></path></svg>